<?xml version="1.0" encoding="utf-8"?>
<!-- Generator: Adobe Illustrator 24.0.1, SVG Export Plug-In . SVG Version: 6.00 Build 0)  -->
<svg version="1.1" id="Layer_1" xmlns:v="https://vecta.io/nano"
	 xmlns="http://www.w3.org/2000/svg" xmlns:xlink="http://www.w3.org/1999/xlink" x="0px" y="0px" viewBox="0 0 98 79"
	 style="enable-background:new 0 0 98 79;" xml:space="preserve">
<style type="text/css">
	.st0{opacity:0.15;fill-rule:evenodd;clip-rule:evenodd;fill:#16C995;enable-background:new    ;}
	.st1{fill:#16C995;}
</style>
<path class="st0" d="M34.3,74.9c17.9,8.7,53.2,3.1,61.9-14.8S79.1,22,61.2,13.3s-42-21.7-50.7-3.9S16.4,66.2,34.3,74.9L34.3,74.9z"
	/>
<path class="st1" d="M5.3,60.6c-2.3,0-4.1,1.8-4.1,4.1c0,2.3,1.8,4.1,4.1,4.1v4.4c0,0.6,0.5,1,1,1h17c0.6,0,1-0.5,1-1v-5.6
	c0-0.3-0.2-0.6-0.4-0.8c-0.3-0.2-0.6-0.2-0.9-0.1c-0.2,0.1-0.5,0.1-0.7,0.1c-1.1,0-2-0.9-2-2s0.9-2,2-2c0.2,0,0.4,0,0.7,0.1
	c0.3,0.1,0.7,0.1,0.9-0.1c0.3-0.2,0.4-0.5,0.4-0.8v-5.6c0-0.6-0.5-1-1-1h-4.4c0-2.3-1.8-4.1-4.1-4.1s-4.1,1.8-4.1,4.1H6.4
	c-0.6,0-1,0.5-1,1L5.3,60.6L5.3,60.6z M6,62.8c0.3,0.1,0.7,0.1,0.9-0.1c0.3-0.2,0.4-0.5,0.4-0.8v-4.6H12c0.3,0,0.6-0.2,0.8-0.4
	c0.2-0.3,0.2-0.6,0.1-0.9c-0.1-0.2-0.1-0.5-0.1-0.7c0-1.1,0.9-2,2-2s2,0.9,2,2c0,0.2,0,0.4-0.1,0.7s-0.1,0.7,0.1,0.9
	c0.2,0.3,0.5,0.4,0.8,0.4h4.6v3.4c-2.3,0-4.1,1.8-4.1,4.1c0,2.3,1.8,4.1,4.1,4.1v3.4H7.4v-4.6c0-0.3-0.2-0.6-0.4-0.8
	c-0.3-0.2-0.6-0.2-0.9-0.1c-0.2,0.1-0.5,0.1-0.7,0.1c-1.1,0-2-0.9-2-2s0.9-2,2-2C5.6,62.7,5.8,62.7,6,62.8z M49.4,27.2l-2.6-3.5
	c-0.3-0.5-1-0.6-1.4-0.2l-13.7,10c-0.5,0.3-0.6,1-0.2,1.4l3.3,4.5c0.2,0.3,0.5,0.4,0.8,0.4s0.6-0.2,0.8-0.4c0.1-0.2,0.3-0.4,0.5-0.5
	c0.9-0.7,2.2-0.5,2.9,0.4s0.5,2.2-0.4,2.9c-0.2,0.1-0.4,0.2-0.6,0.3c-0.3,0.1-0.6,0.3-0.7,0.7c-0.1,0.3-0.1,0.7,0.1,0.9l3.3,4.5
	c0.3,0.5,1,0.6,1.4,0.2l3.5-2.6c1.3,1.8,3.9,2.2,5.7,0.9s2.2-3.9,0.9-5.7l3.5-2.6c0.5-0.3,0.6-1,0.2-1.4l-2.6-3.5
	c1.8-1.3,2.2-3.9,0.9-5.7C53.8,26.3,51.3,25.9,49.4,27.2z M53.1,32.2c-0.2,0.1-0.4,0.2-0.6,0.3c-0.3,0.1-0.6,0.3-0.7,0.7
	c-0.1,0.3-0.1,0.7,0.1,0.9l2.7,3.7l-3.7,2.7c-0.3,0.2-0.4,0.5-0.4,0.8s0.2,0.6,0.4,0.8c0.2,0.1,0.4,0.3,0.5,0.5
	c0.7,0.9,0.5,2.2-0.4,2.9s-2.2,0.5-2.9-0.4c-0.1-0.2-0.2-0.4-0.3-0.6c-0.1-0.3-0.3-0.6-0.7-0.7c-0.3-0.1-0.7-0.1-0.9,0.1l-3.7,2.7
	l-2-2.7c1.8-1.3,2.2-3.9,0.9-5.7s-3.9-2.2-5.7-0.9l-2-2.7l12-8.8l2.7,3.7c0.2,0.3,0.5,0.4,0.8,0.4s0.6-0.2,0.8-0.4
	c0.1-0.2,0.3-0.4,0.5-0.5c0.9-0.7,2.2-0.5,2.9,0.4C54.2,30.2,54,31.5,53.1,32.2z M23.3,30.1h-4.4c0-2.3-1.8-4.1-4.1-4.1
	s-4.1,1.8-4.1,4.1H6.4c-0.6,0-1,0.5-1,1v17c0,0.6,0.5,1,1,1H12c0.3,0,0.6-0.2,0.8-0.4c0.2-0.3,0.2-0.6,0.1-0.9
	c-0.1-0.2-0.1-0.5-0.1-0.7c0-1.1,0.9-2,2-2s2,0.9,2,2c0,0.2,0,0.4-0.1,0.7s-0.1,0.7,0.1,0.9c0.2,0.3,0.5,0.4,0.8,0.4h5.6
	c0.6,0,1-0.5,1-1v-4.4c2.3,0,4.1-1.8,4.1-4.1s-1.8-4.1-4.1-4.1v-4.4C24.4,30.5,23.9,30.1,23.3,30.1z M26.4,39.6c0,1.1-0.9,2-2,2
	c-0.2,0-0.4,0-0.7-0.1c-0.3-0.1-0.7-0.1-0.9,0.1c-0.3,0.2-0.4,0.5-0.4,0.8V47H19c0-2.3-1.8-4.1-4.1-4.1s-4.1,1.8-4.1,4.1H7.4V32.1
	H12c0.3,0,0.6-0.2,0.8-0.4c0.2-0.3,0.2-0.6,0.1-0.9c-0.1-0.2-0.1-0.5-0.1-0.7c0-1.1,0.9-2,2-2s2,0.9,2,2c0,0.2,0,0.4-0.1,0.7
	c-0.1,0.3-0.1,0.7,0.1,0.9c0.2,0.3,0.5,0.4,0.8,0.4h4.6v4.6c0,0.3,0.2,0.6,0.4,0.8c0.3,0.2,0.6,0.2,0.9,0.1c0.2-0.1,0.5-0.1,0.7-0.1
	C25.5,37.5,26.4,38.4,26.4,39.6z M48.5,63.7c0.6,0,1,0.4,1,1s-0.4,1-1,1s-1-0.4-1-1S47.9,63.7,48.5,63.7z M38,55.6
	c-0.2-0.3-0.5-0.4-0.8-0.4h-5.6c-0.6,0-1,0.5-1,1v4.4c-2.3,0-4.1,1.8-4.1,4.1c0,2.3,1.8,4.1,4.1,4.1v4.4c0,0.6,0.5,1,1,1H36
	c0,2.3,1.8,4.1,4.1,4.1s4.1-1.8,4.1-4.1h4.4c0.6,0,1-0.5,1-1v-3.9c0-0.6-0.5-1-1-1c-0.6,0-1,0.5-1,1v2.9H43c-0.3,0-0.6,0.2-0.8,0.4
	c-0.2,0.3-0.2,0.6-0.1,0.9c0.1,0.2,0.1,0.5,0.1,0.7c0,1.1-0.9,2-2,2s-2-0.9-2-2c0-0.2,0-0.4,0.1-0.7c0.1-0.3,0.1-0.7-0.1-0.9
	c-0.2-0.3-0.5-0.4-0.8-0.4h-4.6v-4.6c0-0.3-0.2-0.6-0.4-0.8c-0.3-0.2-0.6-0.2-0.9-0.1c-0.2,0.1-0.5,0.1-0.7,0.1c-1.1,0-2-0.9-2-2
	s0.9-2,2-2c0.2,0,0.4,0,0.7,0.1c0.3,0.1,0.7,0.1,0.9-0.1c0.3-0.2,0.4-0.5,0.4-0.8v-4.6h3.4c0,2.3,1.8,4.1,4.1,4.1s4.1-1.8,4.1-4.1
	h3.4v2.9c0,0.6,0.5,1,1,1c0.6,0,1-0.5,1-1v-3.9c0-0.6-0.5-1-1-1h-5.6c-0.3,0-0.6,0.2-0.8,0.4c-0.2,0.3-0.2,0.6-0.1,0.9
	c0.1,0.2,0.1,0.5,0.1,0.7c0,1.1-0.9,2-2,2s-2-0.9-2-2c0-0.2,0-0.4,0.1-0.7C38.2,56.3,38.2,55.9,38,55.6z"/>
</svg>
