<?xml version="1.0" encoding="utf-8"?>
<!-- Generator: Adobe Illustrator 24.0.1, SVG Export Plug-In . SVG Version: 6.00 Build 0)  -->
<svg version="1.1" id="Layer_1" xmlns:v="https://vecta.io/nano"
	 xmlns="http://www.w3.org/2000/svg" xmlns:xlink="http://www.w3.org/1999/xlink" x="0px" y="0px" viewBox="0 0 102 79"
	 style="enable-background:new 0 0 102 79;" xml:space="preserve">
<style type="text/css">
	.st0{opacity:0.13;fill-rule:evenodd;clip-rule:evenodd;fill:#6A9BF4;enable-background:new    ;}
	.st1{fill:#6A9BF4;}
</style>
<path class="st0" d="M37.9,74.8c17.9,8.7,53.2,3.1,61.9-14.8S82.7,22,64.8,13.3s-42-21.7-50.7-3.9S20,66.1,37.9,74.8z"/>
<path class="st1" d="M36.1,29.8c0-3.7-3-6.7-6.7-6.7c-3.7,0-6.7,3-6.7,6.7s3,6.7,6.7,6.7C33.1,36.5,36.1,33.5,36.1,29.8z M29.4,34.2
	c-2.5,0-4.5-2-4.5-4.5s2-4.5,4.5-4.5s4.5,2,4.5,4.5S31.8,34.2,29.4,34.2z M39.4,51v-4.5c0-5.6-4.5-10.1-10.1-10.1S19.3,41,19.3,46.5
	V51c0,0.6,0.5,1.1,1.1,1.1h17.9C38.9,52.1,39.4,51.6,39.4,51z M37.2,49.9H21.5v-3.4c0-4.3,3.5-7.8,7.8-7.8s7.8,3.5,7.8,7.8V49.9z
	 M8.7,66.9l5.4,2.7v6c0,0.6,0.5,1.1,1.1,1.1h11.9c0.6,0,1.1-0.5,1.1-1.1V61.4c0-3.6-2.6-6.6-6-7c-0.1,0-4.3-0.3-6.4-2.4L12.8,49
	c-0.8-0.8-2-1.3-3.2-1.3v-9c0-2.5-2-4.5-4.5-4.5s-4.5,2-4.5,4.5v15.2C0.7,59.4,3.8,64.5,8.7,66.9L8.7,66.9z M2.9,38.7
	c0-1.2,1-2.2,2.2-2.2s2.2,1,2.2,2.2v9.6c-1.4,0.8-2.2,2.3-2.2,3.9c0,1.2,0.5,2.3,1.3,3.2l5.7,5.7c0.4,0.4,1.1,0.4,1.6,0
	c0.4-0.4,0.4-1.1,0-1.6l-5.7-5.7c-0.4-0.4-0.7-1-0.7-1.6c0-0.9,0.6-1.8,1.5-2.1c0,0,0,0,0,0h0c0.8-0.3,1.7-0.1,2.3,0.5l3.1,3.1
	c2.1,2.1,5.1,2.7,7.7,3c0,0,0,0,0,0c2.2,0.2,4,2.3,4,4.8v13.1h-9.6v-5.6c0-0.4-0.2-0.8-0.6-1l-6-3c-4.2-2.1-6.8-6.3-6.8-11V38.7z
	 M52.1,63.1c0.6,0,1.1,0.5,1.1,1.1c0,0.6-0.5,1.1-1.1,1.1S51,64.8,51,64.2C51,63.6,51.5,63.1,52.1,63.1z M53.5,34.2
	c-2.5,0-4.5,2-4.5,4.5v9c-1.2,0-2.3,0.5-3.2,1.3L42.8,52c-1.8,1.8-4.7,2.1-6.4,2.4c-3.4,0.4-6,3.4-6,7v14.2c0,0.6,0.5,1.1,1.1,1.1
	h11.9c0.6,0,1.1-0.5,1.1-1.1v-6l3.7-1.8c0.6-0.3,0.8-0.9,0.5-1.5c-0.3-0.6-0.9-0.8-1.5-0.5L43,67.9c-0.4,0.2-0.6,0.6-0.6,1v5.6h-9.6
	V61.4c0-2.4,1.7-4.5,4-4.8c0,0,0,0,0,0c2.6-0.4,5.6-0.9,7.7-3l3.1-3.1c0.6-0.6,1.6-0.8,2.3-0.5h0c0,0,0,0,0,0
	c0.9,0.3,1.5,1.2,1.5,2.1c0,0.6-0.2,1.2-0.7,1.6l-5.7,5.7c-0.4,0.4-0.4,1.1,0,1.6c0.4,0.4,1.1,0.4,1.6,0l5.7-5.7
	c0.8-0.8,1.3-2,1.3-3.2c0-1.6-0.9-3.1-2.2-3.9v-9.6c0-1.2,1-2.2,2.2-2.2c1.2,0,2.2,1,2.2,2.2v15.2c0,2-0.5,4.1-1.5,5.9
	c-0.3,0.5-0.1,1.2,0.4,1.5c0.5,0.3,1.2,0.1,1.5-0.4c1.2-2.1,1.8-4.5,1.8-6.9V38.7C58,36.2,56,34.2,53.5,34.2z"/>
</svg>
