<?xml version="1.0" encoding="utf-8"?>
<!-- Generator: Adobe Illustrator 24.0.1, SVG Export Plug-In . SVG Version: 6.00 Build 0)  -->
<svg version="1.1" id="Layer_1" xmlns:v="https://vecta.io/nano"
	 xmlns="http://www.w3.org/2000/svg" xmlns:xlink="http://www.w3.org/1999/xlink" x="0px" y="0px" viewBox="0 0 100 80"
	 style="enable-background:new 0 0 100 80;" xml:space="preserve">
<style type="text/css">
	.st0{opacity:0.13;fill-rule:evenodd;clip-rule:evenodd;fill:#FFBD5C;enable-background:new    ;}
	.st1{fill:#FFBD5C;}
</style>
<path class="st0" d="M36.3,74.9c17.9,8.7,53.2,3.1,61.9-14.8s-17.1-38.1-35-46.8s-42-21.7-50.7-3.9S18.4,66.2,36.3,74.9L36.3,74.9z"
	/>
<path class="st1" d="M50.6,23.8H2.9c-1.5,0-2.8,1.2-2.8,2.8V64c0,1.5,1.2,2.8,2.8,2.8h18.8L21,72.5c-1.8,0.6-3.5,1.5-5,2.5
	c-0.5,0.3-0.6,1-0.3,1.5c0.2,0.3,0.5,0.5,0.9,0.5H37c0.6,0,1.1-0.5,1.1-1.1c0-0.4-0.2-0.7-0.5-0.9c-1.6-1-3.3-1.8-5-2.5l-0.7-5.8
	h18.8c1.5,0,2.8-1.2,2.8-2.8V26.6C53.3,25,52.1,23.8,50.6,23.8z M2.9,25.9h47.6c0.4,0,0.6,0.3,0.6,0.6v29.6H2.3V26.6
	C2.3,26.2,2.6,25.9,2.9,25.9z M21.6,74.8h-0.7c1.7-0.7,3.8-1.3,5.8-1.3c2,0,4.1,0.6,5.8,1.3H21.6z M30.3,71.9
	c-2.3-0.6-4.7-0.6-7.1,0l0.6-5.1h5.8L30.3,71.9z M51.2,64c0,0.4-0.3,0.6-0.6,0.6H2.9c-0.4,0-0.6-0.3-0.6-0.6v-5.7h48.9V64z M25,62.5
	h3.4c0.6,0,1.1-0.5,1.1-1.1s-0.5-1.1-1.1-1.1H25c-0.6,0-1.1,0.5-1.1,1.1S24.5,62.5,25,62.5z M11,50.4h21.6c3.3,2.8,8.2,2.5,11-0.8
	c2.8-3.3,2.5-8.2-0.8-11c-1.2-1.1-2.8-1.7-4.4-1.9v-4.4c0-1.5-1.2-2.8-2.8-2.8H11c-1.5,0-2.8,1.2-2.8,2.8v15.3
	C8.2,49.1,9.5,50.4,11,50.4z M10.4,47.6v-8.2h21.4c-2.1,2.5-2.5,6-0.9,8.8H11C10.7,48.2,10.4,48,10.4,47.6z M10.4,35.9h25.9v0.9
	c-0.6,0.1-1.1,0.3-1.7,0.5H10.4V35.9z M43.4,44.5c0,3.1-2.5,5.7-5.7,5.7c-3.1,0-5.7-2.5-5.7-5.7s2.5-5.7,5.7-5.7
	C40.9,38.8,43.4,41.3,43.4,44.5z M11,31.7h24.7c0.4,0,0.6,0.3,0.6,0.6v1.5H10.4v-1.5C10.4,31.9,10.7,31.7,11,31.7z M21.4,41.3h-8.6
	c-0.6,0-1.1,0.5-1.1,1.1c0,0.6,0.5,1.1,1.1,1.1h8.6c0.6,0,1.1-0.5,1.1-1.1C22.5,41.8,22,41.3,21.4,41.3z M35,43.7
	c-0.5-0.3-1.1-0.2-1.5,0.3c-0.3,0.5-0.2,1.1,0.3,1.5c0,0,0,0,0,0l2.6,1.7c0.5,0.3,1.1,0.2,1.4-0.2l3.4-4.3c0.4-0.5,0.3-1.1-0.2-1.5
	c-0.5-0.4-1.1-0.3-1.5,0.2c0,0,0,0,0,0l-2.8,3.5L35,43.7z"/>
</svg>
