<svg xmlns="http://www.w3.org/2000/svg" viewBox="0 0 775.83 674.96"><defs><style>.cls-1,.cls-2{fill:#f86286;}.cls-1{fill-rule:evenodd;opacity:0.13;}</style></defs><title>Layer 1</title><g id="Layer_2" data-name="Layer 2"><g id="Layer_1-2" data-name="Layer 1"><path id="bg_shape" data-name="bg shape" class="cls-1" d="M548.42,640.19C394.49,715.26,90.06,666.92,15,513.06s147.67-327.71,301.6-402.79S678.52-77,753.56,76.89,702.35,565.11,548.42,640.19Z"/><path class="cls-2" d="M478,173.41h-438a25.45,25.45,0,0,0-25.42,25.42V543A25.44,25.44,0,0,0,39.93,568.4H212.66L206,621.62a233.38,233.38,0,0,0-46.36,22.73,9.78,9.78,0,0,0,5.43,17.92H352.8a9.78,9.78,0,0,0,5.42-17.92,233.3,233.3,0,0,0-46.35-22.73l-6.66-53.22H478A25.44,25.44,0,0,0,503.37,543V198.83A25.45,25.45,0,0,0,478,173.41ZM39.93,193H478a5.88,5.88,0,0,1,5.86,5.87v271.8H34.06V198.83A5.89,5.89,0,0,1,39.93,193ZM212,642.71h-6.38c15.54-6.25,34.52-11.73,53.31-11.73s37.69,5.48,53.24,11.73Zm79.39-27.22a131.59,131.59,0,0,0-64.91,0l5.88-47.09H285.5ZM483.81,543a5.87,5.87,0,0,1-5.86,5.87h-438A5.88,5.88,0,0,1,34.06,543V490.19H483.81ZM243.29,529.3h31.29a9.78,9.78,0,1,0,0-19.56H243.29a9.78,9.78,0,0,0,0,19.56Zm-129-111.46H313.1A71.84,71.84,0,1,0,366.49,292V251.63a25.44,25.44,0,0,0-25.42-25.42H114.24a25.43,25.43,0,0,0-25.42,25.42V392.42A25.44,25.44,0,0,0,114.24,417.84Zm-5.87-25.42V317.13h197a71.67,71.67,0,0,0-8.13,81.15h-183A5.87,5.87,0,0,1,108.37,392.42Zm0-107.55H346.93V293a71.05,71.05,0,0,0-15.21,4.63H108.37Zm304.07,78.7a52.31,52.31,0,1,1-52.31-52.3A52.31,52.31,0,0,1,412.44,363.57ZM114.24,245.76H341.07a5.87,5.87,0,0,1,5.86,5.87v13.68H108.37V251.63A5.87,5.87,0,0,1,114.24,245.76Zm95.81,89H130.86a9.78,9.78,0,0,0,0,19.56h79.19a9.78,9.78,0,0,0,0-19.56ZM335.1,356.86a9.78,9.78,0,1,0-11,16.17l.15.1,23.46,15.65a9.78,9.78,0,0,0,13.06-2l31.28-39.11a9.78,9.78,0,1,0-15.21-12.29l-.05.07-25.7,32.11Z"/></g></g></svg>