<svg xmlns="http://www.w3.org/2000/svg" xmlns:xlink="http://www.w3.org/1999/xlink" viewBox="0 0 291.6 234.6"><path fill="#f7f7fc" d="M145.18,2a92.33,92.33,0,0,1,25,7.59c11,5.27,20.08,13.36,30.42,19.66,17.62,10.73,12.92,7.52,33,11.72,8,1.69,16.1,3.26,23.3,7.07,11,5.84,18.88,16.43,24.36,27.66,12,24.65,14.19,54.55,3.51,79.85-10.44,24.59-34.29,45.36-61.39,48-34.2,3.51-42.59,19.49-76.85,23.73-23.79,3.52-47.68,7-71.73,7.31-10,.11-20.26-.38-29.79-3.61-17.88-6.09-34-18.64-41-36.56A58.33,58.33,0,0,1,5.3,149.07c4-8.69,10.22-16.36,13.13-25.48,2.63-8.24,2.34-16.94,1.94-25.47a63.34,63.34,0,0,1,2.95-23.48C28.06,59.15,35.53,44.34,46.08,32,59.08,16.77,77,5.35,96.69,1.67A120.68,120.68,0,0,1,119.78,0,164.81,164.81,0,0,1,145.18,2Z"/></svg>